<svg width="476" height="388" viewBox="0 0 476 388" fill="none" xmlns="http://www.w3.org/2000/svg">
<mask id="mask0_1998_2404" style="mask-type:luminance" maskUnits="userSpaceOnUse" x="5" y="0" width="466" height="388">
<path d="M471 0H5V388H471V0Z" fill="white"/>
</mask>
<g mask="url(#mask0_1998_2404)">
<path d="M142.671 331.383V350.526C142.671 370.934 183.404 387.477 233.647 387.477C283.891 387.477 324.624 370.934 324.624 350.526V331.383H142.671Z" fill="black" stroke="black" stroke-linecap="round" stroke-linejoin="round"/>
<path d="M142.671 270.036V341.399C142.671 361.807 183.404 378.35 233.647 378.35C283.891 378.35 324.624 361.807 324.624 341.399V270.036C324.624 249.629 283.891 233.086 233.647 233.086C183.404 233.086 142.671 249.629 142.671 270.036Z" fill="#00ED64"/>
<path d="M324.613 270.037V341.4C324.613 361.807 283.88 378.35 233.637 378.35C183.393 378.35 142.66 361.807 142.66 341.4V270.037" stroke="black" stroke-linecap="round" stroke-linejoin="round"/>
<path d="M324.613 306.496C324.613 326.903 283.88 343.446 233.637 343.446C183.393 343.446 142.66 326.903 142.66 306.496" stroke="black" stroke-linecap="round" stroke-linejoin="round"/>
<path d="M306.908 248.126V363.301C318.036 357.17 324.613 349.598 324.613 341.389V270.026C324.613 261.828 318.036 254.246 306.908 248.115V248.126Z" fill="black" stroke="black" stroke-linecap="round" stroke-linejoin="round"/>
<path d="M233.637 306.987C283.882 306.987 324.613 290.443 324.613 270.036C324.613 249.629 283.882 233.086 233.637 233.086C183.392 233.086 142.66 249.629 142.66 270.036C142.66 290.443 183.392 306.987 233.637 306.987Z" fill="white" stroke="black" stroke-linecap="round" stroke-linejoin="round"/>
<path d="M216.798 259.561V272.773C216.798 276.554 224.335 279.614 233.636 279.614C242.937 279.614 250.474 276.554 250.474 272.773V259.561C250.474 255.781 242.937 252.721 233.636 252.721C224.335 252.721 216.798 255.781 216.798 259.561Z" fill="#B3FD34" stroke="black" stroke-linecap="round" stroke-linejoin="round"/>
<path d="M241.737 253.566L238.521 279.321C245.443 278.475 250.474 275.864 250.474 272.773V259.561C250.474 256.971 246.946 254.726 241.726 253.566H241.737Z" fill="black" stroke="black" stroke-linecap="round" stroke-linejoin="round"/>
<path d="M324.613 165.023C324.613 144.615 283.88 128.072 233.637 128.072C183.393 128.072 142.66 144.615 142.66 165.023" stroke="black" stroke-linecap="round" stroke-linejoin="round"/>
<path d="M142.671 158.736V230.098C142.671 250.506 183.404 267.049 233.647 267.049C283.891 267.049 324.624 250.506 324.624 230.098V158.736C324.624 138.328 283.891 121.785 233.647 121.785C183.404 121.785 142.671 138.328 142.671 158.736Z" fill="#00ED64"/>
<path d="M306.908 136.835V252.01C318.036 245.879 324.613 238.307 324.613 230.098V158.735C324.613 150.537 318.036 142.955 306.908 136.824V136.835Z" fill="black" stroke="black" stroke-linecap="round" stroke-linejoin="round"/>
<path d="M233.637 195.686C283.882 195.686 324.613 179.143 324.613 158.736C324.613 138.328 283.882 121.785 233.637 121.785C183.392 121.785 142.66 138.328 142.66 158.736C142.66 179.143 183.392 195.686 233.637 195.686Z" fill="white" stroke="black" stroke-linecap="round" stroke-linejoin="round"/>
<path d="M324.613 158.736V230.099C324.613 250.507 283.88 267.05 233.637 267.05C183.393 267.05 142.66 250.507 142.66 230.099V158.736" stroke="black" stroke-linecap="round" stroke-linejoin="round"/>
<path d="M216.798 148.272V161.484C216.798 165.265 224.335 168.325 233.636 168.325C242.937 168.325 250.474 165.265 250.474 161.484V148.272C250.474 144.492 242.937 141.432 233.636 141.432C224.335 141.432 216.798 144.492 216.798 148.272Z" fill="#B3FD34" stroke="black" stroke-linecap="round" stroke-linejoin="round"/>
<path d="M241.737 142.277L238.521 168.032C245.443 167.186 250.474 164.575 250.474 161.484V148.272C250.474 145.682 246.946 143.437 241.726 142.277H241.737Z" fill="black" stroke="black" stroke-linecap="round" stroke-linejoin="round"/>
<path d="M142.671 47.4465V118.809C142.671 139.217 183.404 155.76 233.647 155.76C283.891 155.76 324.624 139.217 324.624 118.809V47.4465C324.624 27.0392 283.891 10.4961 233.647 10.4961C183.404 10.4961 142.671 27.0392 142.671 47.4465Z" fill="#00ED64"/>
<path d="M324.613 47.4465C324.613 27.0392 283.88 10.4961 233.637 10.4961C183.393 10.4961 142.66 27.0392 142.66 47.4465" stroke="black" stroke-linecap="round" stroke-linejoin="round"/>
<path d="M324.613 47.4473V118.81C324.613 139.218 283.88 155.761 233.637 155.761C183.393 155.761 142.66 139.218 142.66 118.81V47.4473" stroke="black" stroke-linecap="round" stroke-linejoin="round"/>
<path d="M324.613 83.123C324.613 103.53 283.88 120.073 233.637 120.073C183.393 120.073 142.66 103.53 142.66 83.123" stroke="black" stroke-linecap="round" stroke-linejoin="round"/>
<path d="M324.613 194.424C324.613 214.831 283.88 231.374 233.637 231.374C183.393 231.374 142.66 214.831 142.66 194.424" stroke="black" stroke-linecap="round" stroke-linejoin="round"/>
<path d="M306.908 25.5456V140.721C318.036 134.59 324.613 127.018 324.613 118.809V47.4464C324.613 39.2479 318.036 31.6657 306.908 25.5352V25.5456Z" fill="black" stroke="black" stroke-linecap="round" stroke-linejoin="round"/>
<path d="M233.637 84.397C283.882 84.397 324.613 67.854 324.613 47.4465C324.613 27.0393 283.882 10.4961 233.637 10.4961C183.392 10.4961 142.66 27.0393 142.66 47.4465C142.66 67.854 183.392 84.397 233.637 84.397Z" fill="white" stroke="black" stroke-linecap="round" stroke-linejoin="round"/>
<path d="M371.265 194.088L287.606 233.127V359.822L393.479 310.433V205.952L371.265 194.088Z" fill="white" stroke="black" stroke-linecap="round" stroke-linejoin="round"/>
<path d="M377.884 301.033L302.733 336.094C301.626 336.605 300.729 336.135 300.729 335.028C300.729 333.921 301.626 332.605 302.733 332.083L377.884 297.023C378.99 296.511 379.888 296.981 379.888 298.088C379.888 299.195 378.99 300.511 377.884 301.033Z" fill="#00D2FF" stroke="black" stroke-linecap="round" stroke-linejoin="round"/>
<path d="M377.884 265.973L302.733 301.033C301.626 301.545 300.729 301.075 300.729 299.968C300.729 298.861 301.626 297.545 302.733 297.023L377.884 261.962C378.99 261.451 379.888 261.921 379.888 263.028C379.888 264.135 378.99 265.451 377.884 265.973Z" fill="#00D2FF" stroke="black" stroke-linecap="round" stroke-linejoin="round"/>
<path d="M377.884 230.924L302.733 265.984C301.626 266.496 300.729 266.026 300.729 264.919C300.729 263.812 301.626 262.496 302.733 261.974L377.884 226.914C378.99 226.402 379.888 226.872 379.888 227.979C379.888 229.086 378.99 230.402 377.884 230.924Z" fill="#00D2FF" stroke="black" stroke-linecap="round" stroke-linejoin="round"/>
<path d="M325.605 307.895L302.722 318.568C301.616 319.08 300.718 318.61 300.718 317.503C300.718 316.396 301.616 315.08 302.722 314.558L325.605 303.884C326.711 303.373 327.609 303.843 327.609 304.95C327.609 306.057 326.711 307.373 325.605 307.895Z" fill="#00D2FF" stroke="black" stroke-linecap="round" stroke-linejoin="round"/>
<path d="M377.883 283.51L335.751 303.165C334.645 303.677 333.747 303.207 333.747 302.1C333.747 300.993 334.645 299.677 335.751 299.155L377.883 279.5C378.99 278.988 379.888 279.458 379.888 280.565C379.888 281.672 378.99 282.988 377.883 283.51Z" fill="#00D2FF" stroke="black" stroke-linecap="round" stroke-linejoin="round"/>
<path d="M325.605 237.776L302.722 248.449C301.616 248.961 300.718 248.491 300.718 247.384C300.718 246.277 301.616 244.961 302.722 244.439L325.605 233.765C326.711 233.253 327.609 233.723 327.609 234.831C327.609 235.938 326.711 237.253 325.605 237.776Z" fill="#00D2FF" stroke="black" stroke-linecap="round" stroke-linejoin="round"/>
<path d="M377.883 213.389L335.751 233.044C334.645 233.556 333.747 233.086 333.747 231.979C333.747 230.872 334.645 229.556 335.751 229.034L377.883 209.379C378.99 208.867 379.888 209.337 379.888 210.444C379.888 211.551 378.99 212.867 377.883 213.389Z" fill="#00D2FF" stroke="black" stroke-linecap="round" stroke-linejoin="round"/>
<path d="M355.001 255.113L377.884 244.439C378.99 243.927 379.888 244.397 379.888 245.504C379.888 246.611 378.99 247.927 377.884 248.449L355.001 259.123C353.895 259.635 352.997 259.165 352.997 258.058C352.997 256.951 353.895 255.635 355.001 255.113Z" fill="#00D2FF" stroke="black" stroke-linecap="round" stroke-linejoin="round"/>
<path d="M302.733 279.499L344.865 259.843C345.971 259.332 346.869 259.802 346.869 260.909C346.869 262.016 345.971 263.332 344.865 263.854L302.733 283.509C301.626 284.021 300.729 283.551 300.729 282.444C300.729 281.337 301.626 280.021 302.733 279.499Z" fill="#00D2FF" stroke="black" stroke-linecap="round" stroke-linejoin="round"/>
<path d="M373.875 215.092L371.119 220.648L393.48 205.953L373.875 215.092Z" fill="black" stroke="black" stroke-linecap="round" stroke-linejoin="round"/>
<path d="M371.266 194.088V216.312L393.48 205.952L371.266 194.088Z" fill="white" stroke="black" stroke-linecap="round" stroke-linejoin="round"/>
<path d="M185.689 153.222V229.076C185.689 239.353 177.359 243.802 167.087 239.008L30.8891 175.468C20.6171 170.674 12.2861 158.455 12.2861 148.178V72.324C12.2861 62.047 20.6171 57.5981 30.8891 62.392L167.087 125.932C177.359 130.726 185.689 142.945 185.689 153.222Z" fill="#FFF5F4" stroke="black" stroke-linecap="round" stroke-linejoin="round"/>
<path d="M98.9932 207.238V94.1621" stroke="black" stroke-linecap="square" stroke-linejoin="round" stroke-dasharray="2 2"/>
<path d="M70.0884 193.755V80.6797" stroke="black" stroke-linecap="square" stroke-linejoin="round" stroke-dasharray="2 2"/>
<path d="M127.889 220.72V107.645" stroke="black" stroke-linecap="square" stroke-linejoin="round" stroke-dasharray="2 2"/>
<path d="M156.795 234.205V121.129" stroke="black" stroke-linecap="square" stroke-linejoin="round" stroke-dasharray="2 2"/>
<path d="M41.1924 180.271V67.1953" stroke="black" stroke-linecap="square" stroke-linejoin="round" stroke-dasharray="2 2"/>
<path d="M12.2861 119.738L41.1921 157.044L70.0871 133.764L98.9931 175.247L127.888 138.913L156.794 177.033L185.689 172.647" stroke="black" stroke-linecap="round" stroke-linejoin="round"/>
<path d="M17.5941 126.423C19.9191 124.576 19.4311 120.087 16.5021 116.396C13.5741 112.705 9.31514 111.21 6.98914 113.057C4.66414 114.903 5.15215 119.393 8.08115 123.084C11.0091 126.775 15.2681 128.27 17.5941 126.423Z" fill="#00D2FF" stroke="black" stroke-linecap="round" stroke-linejoin="round"/>
<path d="M15.4722 123.75C16.8672 122.642 16.5742 119.949 14.8182 117.735C13.0622 115.521 10.5072 114.625 9.11119 115.733C7.71619 116.841 8.00919 119.534 9.76519 121.748C11.5212 123.961 14.0762 124.858 15.4722 123.75Z" fill="#0D427C"/>
<path d="M46.494 163.722C48.82 161.875 48.331 157.386 45.403 153.695C42.474 150.004 38.215 148.509 35.89 150.355C33.564 152.202 34.053 156.691 36.981 160.382C39.909 164.074 44.169 165.569 46.494 163.722Z" fill="#00D2FF" stroke="black" stroke-linecap="round" stroke-linejoin="round"/>
<path d="M44.372 161.048C45.767 159.94 45.475 157.248 43.718 155.034C41.962 152.82 39.407 151.924 38.012 153.032C36.617 154.14 36.909 156.833 38.665 159.046C40.422 161.26 42.977 162.157 44.372 161.048Z" fill="#0D427C"/>
<path d="M75.3901 141.151C77.7151 139.304 77.2271 134.815 74.2981 131.124C71.3701 127.432 67.1111 125.937 64.7851 127.784C62.4601 129.631 62.9481 134.12 65.8761 137.811C68.8051 141.502 73.0641 142.997 75.3901 141.151Z" fill="#00D2FF" stroke="black" stroke-linecap="round" stroke-linejoin="round"/>
<path d="M73.2681 138.476C74.6631 137.368 74.3701 134.675 72.6141 132.462C70.8581 130.248 68.3031 129.351 66.9071 130.46C65.5121 131.568 65.8051 134.26 67.5611 136.474C69.3171 138.688 71.8721 139.584 73.2681 138.476Z" fill="#0D427C"/>
<path d="M104.3 180.405C106.625 178.558 106.137 174.069 103.208 170.377C100.28 166.686 96.0212 165.191 93.6952 167.038C91.3702 168.885 91.8582 173.374 94.7872 177.065C97.7152 180.756 101.974 182.251 104.3 180.405Z" fill="#00D2FF" stroke="black" stroke-linecap="round" stroke-linejoin="round"/>
<path d="M102.178 177.728C103.573 176.62 103.28 173.927 101.524 171.713C99.7681 169.5 97.2131 168.603 95.8181 169.711C94.4221 170.819 94.7151 173.512 96.4711 175.726C98.2271 177.94 100.782 178.836 102.178 177.728Z" fill="#0D427C"/>
<path d="M133.198 145.594C135.524 143.747 135.035 139.258 132.107 135.567C129.179 131.876 124.919 130.381 122.594 132.227C120.268 134.074 120.757 138.564 123.685 142.255C126.613 145.946 130.873 147.441 133.198 145.594Z" fill="#00D2FF" stroke="black" stroke-linecap="round" stroke-linejoin="round"/>
<path d="M131.076 142.918C132.471 141.81 132.179 139.117 130.423 136.903C128.666 134.689 126.111 133.793 124.716 134.901C123.321 136.009 123.613 138.702 125.37 140.916C127.126 143.129 129.681 144.026 131.076 142.918Z" fill="#0D427C"/>
<path d="M162.094 183.706C164.419 181.86 163.931 177.37 161.002 173.679C158.074 169.988 153.815 168.493 151.489 170.34C149.164 172.186 149.652 176.676 152.581 180.367C155.509 184.058 159.768 185.553 162.094 183.706Z" fill="#00D2FF" stroke="black" stroke-linecap="round" stroke-linejoin="round"/>
<path d="M159.972 181.031C161.367 179.923 161.074 177.23 159.318 175.016C157.562 172.802 155.007 171.906 153.611 173.014C152.216 174.122 152.509 176.815 154.265 179.029C156.021 181.243 158.576 182.139 159.972 181.031Z" fill="#0D427C"/>
<path d="M190.988 179.323C193.314 177.476 192.825 172.986 189.897 169.295C186.969 165.604 182.709 164.109 180.384 165.956C178.058 167.803 178.547 172.292 181.475 175.983C184.403 179.674 188.663 181.169 190.988 179.323Z" fill="#00D2FF" stroke="black" stroke-linecap="round" stroke-linejoin="round"/>
<path d="M188.866 176.646C190.262 175.538 189.969 172.845 188.213 170.631C186.456 168.418 183.901 167.521 182.506 168.629C181.111 169.737 181.403 172.43 183.16 174.644C184.916 176.858 187.471 177.754 188.866 176.646Z" fill="#0D427C"/>
<path d="M78.7632 298.861C78.7632 298.861 77.0932 300.615 72.6872 296.417C68.2822 292.229 69.9522 290.474 69.9522 290.474L96.6972 262.547C96.6972 262.547 98.7432 261.357 102.668 265.096C106.593 268.835 105.508 270.934 105.508 270.934L78.7632 298.861Z" fill="#00D2FF" stroke="black" stroke-linecap="round" stroke-linejoin="round"/>
<path d="M69.9522 290.486L96.6972 262.559C96.6972 262.559 98.7432 261.369 102.668 265.107C106.218 268.491 105.675 270.528 105.529 270.893C101.614 267.175 99.5782 268.366 99.5782 268.366L72.8332 296.293C72.8332 296.293 72.7812 296.345 72.7192 296.46L72.6872 296.429C68.2822 292.241 69.9522 290.486 69.9522 290.486Z" fill="black"/>
<path d="M104.797 272.752C104.797 272.752 102.49 273.869 98.2311 269.932C93.9721 265.995 94.9011 263.613 94.9011 263.613L102.125 255.791C102.125 255.791 103.127 257.504 106.676 260.783C110.226 264.063 112.011 264.929 112.011 264.929L104.787 272.752H104.797Z" fill="#00D2FF" stroke="black" stroke-linecap="round" stroke-linejoin="round"/>
<path d="M164.759 263.717C149.027 280.761 122.46 281.806 105.434 266.067C88.3973 250.328 87.3533 223.748 103.085 206.714C118.817 189.67 145.384 188.626 162.41 204.365C179.447 220.104 180.491 246.683 164.759 263.717ZM159.425 207.592C144.173 193.503 120.393 194.443 106.311 209.691C92.2283 224.949 93.1683 248.741 108.409 262.829C123.66 276.918 147.441 275.978 161.523 260.73C175.605 245.472 174.666 221.681 159.425 207.592Z" fill="black" stroke="black" stroke-linecap="round" stroke-linejoin="round"/>
<path d="M165.72 259.739C149.988 276.783 123.421 277.827 106.395 262.088C89.3582 246.35 88.3142 219.77 104.046 202.736C119.778 185.692 146.345 184.647 163.371 200.386C180.408 216.125 181.452 242.705 165.72 259.739ZM160.386 203.613C145.134 189.525 121.354 190.464 107.272 205.712C93.1892 220.971 94.1292 244.762 109.37 258.851C124.621 272.94 148.402 272 162.484 256.752C176.566 241.493 175.627 217.702 160.386 203.613Z" fill="#00D2FF" stroke="black" stroke-linecap="round" stroke-linejoin="round"/>
<path d="M165.72 259.739C149.988 276.783 123.421 277.827 106.395 262.088C89.3582 246.35 88.3142 219.77 104.046 202.736C119.778 185.692 146.345 184.647 163.371 200.386C180.408 216.125 181.452 242.705 165.72 259.739ZM160.386 203.613C145.134 189.525 121.354 190.464 107.272 205.712C93.1892 220.971 94.1292 244.762 109.37 258.851C124.621 272.94 148.402 272 162.484 256.752C176.566 241.493 175.627 217.702 160.386 203.613Z" fill="#00D2FF" stroke="black" stroke-linecap="round" stroke-linejoin="round"/>
<path d="M104.391 260.365L96.7913 268.563C96.7913 268.563 94.1923 265.577 94.8603 263.561L101.217 256.699L104.391 260.365Z" fill="black"/>
<path d="M444.078 153.462L316.001 93.713C301.48 86.935 289.601 69.515 289.601 54.9872C289.601 40.4598 301.48 34.1204 316.001 40.888L444.078 100.637C458.599 107.415 470.478 124.836 470.478 139.363C470.478 153.891 458.599 160.23 444.078 153.462Z" fill="white" stroke="black" stroke-linecap="round" stroke-linejoin="round"/>
<path d="M308.15 69.576L322.953 70.547L308.15 57.6702V51.0801L332.118 72.281V77.367L308.15 76.177V69.566V69.576Z" fill="#00D2FF" stroke="black" stroke-linecap="round" stroke-linejoin="round"/>
<path d="M308.15 69.576L322.953 70.547L308.15 57.6702V51.0801L332.118 72.281V77.367L308.15 76.177V69.566V69.576Z" fill="#00D2FF" stroke="black" stroke-linecap="round" stroke-linejoin="round"/>
<path d="M340.146 78.5586L450.519 130.047" stroke="black" stroke-linecap="square" stroke-linejoin="round" stroke-dasharray="2 2"/>
<path d="M172.526 30.4118L157.588 26.4118L142.649 22.4014L153.579 11.4667L164.519 0.521484L168.517 15.4667L172.526 30.4118Z" fill="white" stroke="black" stroke-linecap="round" stroke-linejoin="round"/>
<path d="M160.25 18.1298L164.519 0.521484L142.649 22.4014L160.25 18.1298Z" fill="black"/>
<path d="M160.25 18.1309L172.526 30.4128" stroke="black" stroke-linecap="round" stroke-linejoin="round"/>
<path d="M412.187 193.785H428.649L436.885 179.519L428.649 165.242H412.187L403.95 179.519L412.187 193.785Z" fill="white" stroke="black" stroke-linecap="round" stroke-linejoin="round"/>
<path d="M428.649 165.242H412.187L420.423 179.519H436.885L428.649 165.242Z" fill="black" stroke="black" stroke-linecap="round" stroke-linejoin="round"/>
<path d="M412.187 193.786L420.423 179.52" stroke="black" stroke-linecap="round" stroke-linejoin="round"/>
</g>
</svg>
