<svg width="688" height="440" viewBox="0 0 688 440" fill="none" xmlns="http://www.w3.org/2000/svg">
<path d="M322.6 55.4999H193.8C192.1 55.4999 190.7 54.0999 190.7 52.3999C190.7 50.6999 192.1 49.2999 193.8 49.2999H322.6C324.3 49.2999 325.7 50.6999 325.7 52.3999C325.8 53.9999 324.4 55.4999 322.6 55.4999Z" fill="#00D2FF" stroke="#001E2B" stroke-width="0.75" stroke-miterlimit="10"/>
<path d="M590.1 152.7H461.3C459.6 152.7 458.2 151.3 458.2 149.6C458.2 147.9 459.6 146.5 461.3 146.5H590.1C591.8 146.5 593.2 147.9 593.2 149.6C593.2 151.3 591.8 152.7 590.1 152.7Z" fill="#B1FF05" stroke="#001F2C" stroke-width="0.75" stroke-miterlimit="10"/>
<path d="M179.5 105.7H102.6C100.9 105.7 99.5 104.3 99.5 102.6C99.5 100.9 100.9 99.5 102.6 99.5H179.5C181.2 99.5 182.6 100.9 182.6 102.6C182.7 104.3 181.3 105.7 179.5 105.7Z" fill="#B1FF05" stroke="#001F2C" stroke-width="0.75" stroke-miterlimit="10"/>
<path d="M573.5 177.9H532.9C531.2 177.9 529.8 176.5 529.8 174.8C529.8 173.1 531.2 171.7 532.9 171.7H573.5C575.2 171.7 576.6 173.1 576.6 174.8C576.6 176.5 575.2 177.9 573.5 177.9Z" fill="#00D2FF" stroke="#001E2B" stroke-width="0.75" stroke-miterlimit="10"/>
<path d="M455.6 58.8V98.6C455.6 104 460 108.4 465.4 108.4H536.9C542.3 108.4 546.7 104 546.7 98.6V58.8C546.7 53.4 542.3 49 536.9 49H465.4C460 49 455.6 53.4 455.6 58.8Z" fill="#FFF5F4" stroke="#231F20" stroke-width="0.75" stroke-miterlimit="10"/>
<path d="M516.3 108.4V49" stroke="#001E2B" stroke-width="0.75" stroke-miterlimit="10" stroke-linecap="round" stroke-dasharray="2 2"/>
<path d="M485.9 108.4V49" stroke="#001E2B" stroke-width="0.75" stroke-miterlimit="10" stroke-linecap="round" stroke-dasharray="2 2"/>
<path d="M546.7 67.6L516.3 81.8L485.9 107.7L455.6 88.9" stroke="#001E2B" stroke-width="0.75" stroke-miterlimit="10" stroke-linecap="round" stroke-linejoin="round"/>
<path d="M546.7 74.7C550.621 74.7 553.8 71.5212 553.8 67.6C553.8 63.6788 550.621 60.5 546.7 60.5C542.779 60.5 539.6 63.6788 539.6 67.6C539.6 71.5212 542.779 74.7 546.7 74.7Z" fill="#00D2FF" stroke="#001E2B" stroke-width="0.75" stroke-miterlimit="10"/>
<path d="M546.7 71.8999C549.075 71.8999 551 69.9748 551 67.5999C551 65.2251 549.075 63.2999 546.7 63.2999C544.325 63.2999 542.4 65.2251 542.4 67.5999C542.4 69.9748 544.325 71.8999 546.7 71.8999Z" fill="#0D427C"/>
<path d="M516.3 88.9C520.221 88.9 523.4 85.7212 523.4 81.8C523.4 77.8787 520.221 74.7 516.3 74.7C512.379 74.7 509.2 77.8787 509.2 81.8C509.2 85.7212 512.379 88.9 516.3 88.9Z" fill="#00D2FF" stroke="#001E2B" stroke-width="0.75" stroke-miterlimit="10"/>
<path d="M516.3 86.1C518.675 86.1 520.6 84.1748 520.6 81.8C520.6 79.4252 518.675 77.5 516.3 77.5C513.925 77.5 512 79.4252 512 81.8C512 84.1748 513.925 86.1 516.3 86.1Z" fill="#0D427C"/>
<path d="M485.9 114.8C489.821 114.8 493 111.621 493 107.7C493 103.779 489.821 100.6 485.9 100.6C481.979 100.6 478.8 103.779 478.8 107.7C478.8 111.621 481.979 114.8 485.9 114.8Z" fill="#00D2FF" stroke="#001E2B" stroke-width="0.75" stroke-miterlimit="10"/>
<path d="M485.9 112C488.275 112 490.2 110.075 490.2 107.7C490.2 105.325 488.275 103.4 485.9 103.4C483.525 103.4 481.6 105.325 481.6 107.7C481.6 110.075 483.525 112 485.9 112Z" fill="#0D427C"/>
<path d="M455.6 95.9999C459.521 95.9999 462.7 92.8211 462.7 88.8999C462.7 84.9787 459.521 81.7999 455.6 81.7999C451.679 81.7999 448.5 84.9787 448.5 88.8999C448.5 92.8211 451.679 95.9999 455.6 95.9999Z" fill="#00D2FF" stroke="#001E2B" stroke-width="0.75" stroke-miterlimit="10"/>
<path d="M455.6 93.2C457.975 93.2 459.9 91.2748 459.9 88.9C459.9 86.5252 457.975 84.6 455.6 84.6C453.225 84.6 451.3 86.5252 451.3 88.9C451.3 91.2748 453.225 93.2 455.6 93.2Z" fill="#0D427C"/>
<path d="M357.6 172H239.4C226 172 215 161 215 147.6C215 134.2 226 123.2 239.4 123.2H357.6C371 123.2 382 134.2 382 147.6C381.9 161 371 172 357.6 172Z" fill="white" stroke="#231F20" stroke-width="0.75" stroke-miterlimit="10"/>
<path d="M232.1 153.1L245.8 147.6L232.1 142.1V136L254.2 145.2V149.9L232.1 159.1V153.1Z" fill="#00D2FF" stroke="#001E2B" stroke-width="0.75" stroke-miterlimit="10"/>
<path d="M232.1 153.1L245.8 147.6L232.1 142.1V136L254.2 145.2V149.9L232.1 159.1V153.1Z" fill="#00D2FF" stroke="#001E2B" stroke-width="0.75" stroke-miterlimit="10"/>
<path d="M261.7 147.6H363.5" stroke="#001E2B" stroke-miterlimit="10" stroke-dasharray="2 2"/>
<path d="M340.6 354.6L223.2 388.7V309.8L340.6 275.8V354.6Z" fill="#00ED64" stroke="#001E2B" stroke-miterlimit="10" stroke-linecap="round" stroke-linejoin="round"/>
<path d="M305.2 310.3L258.7 323.8C256.2 324.5 254.2 323.1 254.2 320.6C254.2 318.1 256.2 315.5 258.7 314.8L305.2 301.3C307.7 300.6 309.7 302 309.7 304.5C309.7 306.9 307.7 309.5 305.2 310.3Z" fill="#00ED64" stroke="#001E2B" stroke-miterlimit="10" stroke-linecap="round" stroke-linejoin="round"/>
<path d="M471.3 392.5L340.6 354.6V275.8L471.3 313.7V392.5Z" fill="#00ED64" stroke="#001E2B" stroke-miterlimit="10" stroke-linecap="round" stroke-linejoin="round"/>
<path d="M457.6 9.19995L463.7 42L469.7 74.7L438.3 63.5999L406.9 52.4L432.3 30.7999L457.6 9.19995Z" fill="white" stroke="#001E2B" stroke-width="0.75" stroke-miterlimit="10"/>
<path d="M445.1 44.3999L406.9 52.3999L469.7 74.6999L445.1 44.3999Z" fill="#001E2B"/>
<path d="M445.1 44.4L457.6 9.19995" stroke="#001E2B" stroke-width="0.75" stroke-miterlimit="10"/>
<path d="M106.4 164.5V204.3C106.4 209.7 110.8 214.1 116.2 214.1H187.7C193.1 214.1 197.5 209.7 197.5 204.3V164.5C197.5 159.1 193.1 154.7 187.7 154.7H116.2C110.8 154.7 106.4 159.1 106.4 164.5Z" fill="#FFF5F4" stroke="#231F20" stroke-width="0.75" stroke-miterlimit="10"/>
<path d="M167.2 214.1V154.7" stroke="#001E2B" stroke-width="0.75" stroke-miterlimit="10" stroke-linecap="round" stroke-dasharray="2 2"/>
<path d="M136.8 214.1V154.7" stroke="#001E2B" stroke-width="0.75" stroke-miterlimit="10" stroke-linecap="round" stroke-dasharray="2 2"/>
<path d="M197.5 194.6L167.2 170.5L136.8 154.7L106.4 194.6" stroke="#001E2B" stroke-width="0.75" stroke-miterlimit="10" stroke-linecap="round" stroke-linejoin="round"/>
<path d="M197.5 201.7C201.421 201.7 204.6 198.521 204.6 194.6C204.6 190.679 201.421 187.5 197.5 187.5C193.579 187.5 190.4 190.679 190.4 194.6C190.4 198.521 193.579 201.7 197.5 201.7Z" fill="#00D2FF" stroke="#001E2B" stroke-width="0.75" stroke-miterlimit="10"/>
<path d="M197.5 198.9C199.875 198.9 201.8 196.975 201.8 194.6C201.8 192.225 199.875 190.3 197.5 190.3C195.125 190.3 193.2 192.225 193.2 194.6C193.2 196.975 195.125 198.9 197.5 198.9Z" fill="#0D427C"/>
<path d="M167.2 177.6C171.121 177.6 174.3 174.421 174.3 170.5C174.3 166.579 171.121 163.4 167.2 163.4C163.279 163.4 160.1 166.579 160.1 170.5C160.1 174.421 163.279 177.6 167.2 177.6Z" fill="#00D2FF" stroke="#001E2B" stroke-width="0.75" stroke-miterlimit="10"/>
<path d="M167.2 174.8C169.575 174.8 171.5 172.875 171.5 170.5C171.5 168.125 169.575 166.2 167.2 166.2C164.825 166.2 162.9 168.125 162.9 170.5C162.9 172.875 164.825 174.8 167.2 174.8Z" fill="#0D427C"/>
<path d="M136.8 161.8C140.721 161.8 143.9 158.621 143.9 154.7C143.9 150.779 140.721 147.6 136.8 147.6C132.879 147.6 129.7 150.779 129.7 154.7C129.7 158.621 132.879 161.8 136.8 161.8Z" fill="#00D2FF" stroke="#001E2B" stroke-width="0.75" stroke-miterlimit="10"/>
<path d="M136.8 159C139.175 159 141.1 157.075 141.1 154.7C141.1 152.325 139.175 150.4 136.8 150.4C134.425 150.4 132.5 152.325 132.5 154.7C132.5 157.075 134.425 159 136.8 159Z" fill="#0D427C"/>
<path d="M106.4 201.7C110.321 201.7 113.5 198.521 113.5 194.6C113.5 190.679 110.321 187.5 106.4 187.5C102.479 187.5 99.3 190.679 99.3 194.6C99.3 198.521 102.479 201.7 106.4 201.7Z" fill="#00D2FF" stroke="#001E2B" stroke-width="0.75" stroke-miterlimit="10"/>
<path d="M106.4 198.9C108.775 198.9 110.7 196.975 110.7 194.6C110.7 192.225 108.775 190.3 106.4 190.3C104.025 190.3 102.1 192.225 102.1 194.6C102.1 196.975 104.025 198.9 106.4 198.9Z" fill="#0D427C"/>
<path d="M294.4 22.8V62.6C294.4 68 298.8 72.4 304.2 72.4H375.7C381.1 72.4 385.5 68 385.5 62.6V22.8C385.5 17.4 381.1 13 375.7 13H304.2C298.8 13 294.4 17.4 294.4 22.8Z" fill="#FFF5F4" stroke="#231F20" stroke-width="0.75" stroke-miterlimit="10"/>
<path d="M355.2 72.4V13" stroke="#001E2B" stroke-width="0.75" stroke-miterlimit="10" stroke-linecap="round" stroke-dasharray="2 2"/>
<path d="M324.8 72.4V13" stroke="#001E2B" stroke-width="0.75" stroke-miterlimit="10" stroke-linecap="round" stroke-dasharray="2 2"/>
<path d="M385.5 45.2L355.2 62L324.8 32.4L294.4 40.6" stroke="#001E2B" stroke-width="0.75" stroke-miterlimit="10" stroke-linecap="round" stroke-linejoin="round"/>
<path d="M385.5 52.3C389.421 52.3 392.6 49.1212 392.6 45.2C392.6 41.2788 389.421 38.1 385.5 38.1C381.579 38.1 378.4 41.2788 378.4 45.2C378.4 49.1212 381.579 52.3 385.5 52.3Z" fill="#00D2FF" stroke="#001E2B" stroke-width="0.75" stroke-miterlimit="10"/>
<path d="M385.5 49.5C387.875 49.5 389.8 47.5748 389.8 45.2C389.8 42.8252 387.875 40.9 385.5 40.9C383.125 40.9 381.2 42.8252 381.2 45.2C381.2 47.5748 383.125 49.5 385.5 49.5Z" fill="#0D427C"/>
<path d="M355.2 69.1C359.121 69.1 362.3 65.9212 362.3 62C362.3 58.0788 359.121 54.9 355.2 54.9C351.279 54.9 348.1 58.0788 348.1 62C348.1 65.9212 351.279 69.1 355.2 69.1Z" fill="#00D2FF" stroke="#001E2B" stroke-width="0.75" stroke-miterlimit="10"/>
<path d="M355.2 66.3001C357.575 66.3001 359.5 64.3749 359.5 62.0001C359.5 59.6252 357.575 57.7001 355.2 57.7001C352.825 57.7001 350.9 59.6252 350.9 62.0001C350.9 64.3749 352.825 66.3001 355.2 66.3001Z" fill="#0D427C"/>
<path d="M324.8 40C328.721 40 331.9 36.8213 331.9 32.9001C331.9 28.9788 328.721 25.8 324.8 25.8C320.879 25.8 317.7 28.9788 317.7 32.9001C317.7 36.8213 320.879 40 324.8 40Z" fill="#00D2FF" stroke="#001E2B" stroke-width="0.75" stroke-miterlimit="10"/>
<path d="M324.8 37.2C327.175 37.2 329.1 35.2748 329.1 32.9C329.1 30.5252 327.175 28.6 324.8 28.6C322.425 28.6 320.5 30.5252 320.5 32.9C320.5 35.2748 322.425 37.2 324.8 37.2Z" fill="#0D427C"/>
<path d="M294.4 47.7C298.321 47.7 301.5 44.5212 301.5 40.6C301.5 36.6788 298.321 33.5 294.4 33.5C290.479 33.5 287.3 36.6788 287.3 40.6C287.3 44.5212 290.479 47.7 294.4 47.7Z" fill="#00D2FF" stroke="#001E2B" stroke-width="0.75" stroke-miterlimit="10"/>
<path d="M294.4 44.9001C296.775 44.9001 298.7 42.9749 298.7 40.6C298.7 38.2252 296.775 36.3 294.4 36.3C292.025 36.3 290.1 38.2252 290.1 40.6C290.1 42.9749 292.025 44.9001 294.4 44.9001Z" fill="#0D427C"/>
<path d="M227.6 70.5L207.8 100L223.4 131.9L258.8 134.3L278.6 104.8L263 72.9L227.6 70.5Z" fill="white" stroke="#001E2B" stroke-width="0.75" stroke-miterlimit="10"/>
<path d="M258.8 134.3L278.6 104.8L243.2 102.4L223.4 131.9L258.8 134.3Z" fill="#001E2B" stroke="#001E2B" stroke-width="0.75" stroke-miterlimit="10"/>
<path d="M227.6 70.5L243.2 102.4" stroke="#001E2B" stroke-width="0.75" stroke-miterlimit="10"/>
<path d="M462.2 230.3H349.2C335.8 230.3 324.8 219.3 324.8 205.9C324.8 192.5 335.8 181.5 349.2 181.5H462.2C475.6 181.5 486.6 192.5 486.6 205.9C486.6 219.4 475.6 230.3 462.2 230.3Z" fill="white" stroke="#231F20" stroke-width="0.75" stroke-miterlimit="10"/>
<path d="M342 211.4L355.7 205.9L342 200.4V194.3L364.1 203.5V208.2L342 217.4V211.4Z" fill="#00ED64"/>
<path d="M342 211.4L355.7 205.9L342 200.4V194.3L364.1 203.5V208.2L342 217.4V211.4Z" fill="#00ED64" stroke="#001E2B" stroke-miterlimit="10" stroke-linecap="round" stroke-linejoin="round"/>
<path d="M371.5 206H468.2" stroke="#001E2B" stroke-miterlimit="10" stroke-dasharray="2 2"/>
<path d="M306.5 298.6L281.6 353.1L316.4 402L376.1 396.2L400.9 341.7L366.2 292.9L306.5 298.6Z" fill="white" stroke="#231F20" stroke-width="0.75" stroke-miterlimit="10" stroke-linejoin="round"/>
<path d="M366.2 292.9L368.6 318.3L371 343.7L347.8 333.1L324.5 322.5L345.3 307.7L366.2 292.9Z" fill="white" stroke="#231F20" stroke-width="0.75" stroke-miterlimit="10" stroke-linejoin="round"/>
<path d="M329.4 373.4L350.2 358.6L371 343.7L347.8 333.1L324.5 322.5L327 348L329.4 373.4Z" fill="white" stroke="#231F20" stroke-width="0.75" stroke-miterlimit="10" stroke-linejoin="round"/>
<path d="M324.5 322.5L306.5 298.6L366.2 292.9L324.5 322.5Z" fill="#00D2FF" stroke="#001E2B" stroke-width="0.75" stroke-miterlimit="10"/>
<path d="M371 343.7L400.9 341.7L366.2 292.9L371 343.7Z" fill="#001E2B" stroke="#001E2B" stroke-width="0.75" stroke-miterlimit="10"/>
<path d="M324.5 322.5L299.3 353.4L306.5 298.6L324.5 322.5Z" fill="white" stroke="#231F20" stroke-width="0.75" stroke-miterlimit="10" stroke-linejoin="round"/>
<path d="M371 343.7L364.3 383.1L400.9 341.7L371 343.7Z" fill="white" stroke="#231F20" stroke-width="0.75" stroke-miterlimit="10" stroke-linejoin="round"/>
<path d="M353.9 426.8L471.3 392.7V313.9L353.9 347.9V426.8Z" fill="#B1FF05" stroke="#001E2B" stroke-width="0.75" stroke-miterlimit="10"/>
<path d="M389.4 361.8L435.9 348.3C438.4 347.6 440.4 345 440.4 342.5C440.4 340 438.4 338.6 435.9 339.3L389.4 352.8C386.9 353.5 384.9 356.1 384.9 358.6C384.8 361.1 386.9 362.6 389.4 361.8Z" fill="white" stroke="#001E2B" stroke-width="0.75" stroke-miterlimit="10"/>
<path d="M223.2 389.1L353.9 427V348.2L223.2 310.3V389.1Z" fill="#B1FF05" stroke="#001E2B" stroke-width="0.75" stroke-miterlimit="10"/>
<path d="M277.6 404.9L223.2 389.1V310.3L255.6 319.6L277.6 404.9Z" fill="#001F2C"/>
<path d="M334.8 271C332.5 269.1 330.1 267.8 327.3 267.1C324.6 266.4 222.5 266.1 212.8 266.1C204 266.1 197.6 265.2 193.7 263.3C189.8 261.4 186.9 258.5 185.2 254.3C183.5 250.2 182.6 244.3 182.6 236.7V233H199.7C199.7 238.8 200.2 242.5 201.2 244.1C202.2 245.7 203.7 246.7 205.7 247.2L322.3 248.3C329 248.6 334.1 249.8 337.7 251.7C341.3 253.6 344.3 256.7 346.9 260.9C349.8 256.4 352.7 253.4 355.8 251.7C358.9 250.1 362.2 249 365.6 248.6C369 248.1 472.3 247.8 483.7 247.5C487.8 247.4 490.6 246.7 492 245.3C493.4 243.9 494.1 239.8 494.1 232.9H511.1V236.7C511.1 243.3 510.5 248.4 509.4 252C508.2 255.6 506.3 258.6 503.7 260.8C501.1 263.1 497.8 264.5 494 265.1C490.1 265.7 388.3 266 380.3 266C369.7 266 363 267.3 359.9 269.9C356.9 272.5 355.3 276.4 355.3 281.6H338.2C338.3 276.5 337.1 272.9 334.8 271Z" fill="white" stroke="#001E2B" stroke-miterlimit="10" stroke-linecap="round" stroke-linejoin="round"/>
<path d="M334.8 271C332.5 269.1 330.1 267.8 327.3 267.1C324.6 266.4 222.5 266.1 212.8 266.1C204 266.1 197.6 265.2 193.7 263.3C189.8 261.4 186.9 258.5 185.2 254.3C183.5 250.2 182.6 244.3 182.6 236.7V233H199.7C199.7 238.8 200.2 242.5 201.2 244.1C202.2 245.7 203.7 246.7 205.7 247.2L322.3 248.3C329 248.6 334.1 249.8 337.7 251.7C341.3 253.6 344.3 256.7 346.9 260.9C349.8 256.4 352.7 253.4 355.8 251.7C358.9 250.1 362.2 249 365.6 248.6C369 248.1 472.3 247.8 483.7 247.5C487.8 247.4 490.6 246.7 492 245.3C493.4 243.9 494.1 239.8 494.1 232.9H511.1V236.7C511.1 243.3 510.5 248.4 509.4 252C508.2 255.6 506.3 258.6 503.7 260.8C501.1 263.1 497.8 264.5 494 265.1C490.1 265.7 388.3 266 380.3 266C369.7 266 363 267.3 359.9 269.9C356.9 272.5 355.3 276.4 355.3 281.6H338.2C338.3 276.5 337.1 272.9 334.8 271Z" fill="#00ED64"/>
<path d="M334.8 271C332.5 269.1 330.1 267.8 327.3 267.1C324.6 266.4 222.5 266.1 212.8 266.1C204 266.1 197.6 265.2 193.7 263.3C189.8 261.4 186.9 258.5 185.2 254.3C183.5 250.2 182.6 244.3 182.6 236.7V233H199.7C199.7 238.8 200.2 242.5 201.2 244.1C202.2 245.7 203.7 246.7 205.7 247.2L322.3 248.3C329 248.6 334.1 249.8 337.7 251.7C341.3 253.6 344.3 256.7 346.9 260.9C349.8 256.4 352.7 253.4 355.8 251.7C358.9 250.1 362.2 249 365.6 248.6C369 248.1 472.3 247.8 483.7 247.5C487.8 247.4 490.6 246.7 492 245.3C493.4 243.9 494.1 239.8 494.1 232.9H511.1V236.7C511.1 243.3 510.5 248.4 509.4 252C508.2 255.6 506.3 258.6 503.7 260.8C501.1 263.1 497.8 264.5 494 265.1C490.1 265.7 388.3 266 380.3 266C369.7 266 363 267.3 359.9 269.9C356.9 272.5 355.3 276.4 355.3 281.6H338.2C338.3 276.5 337.1 272.9 334.8 271Z" fill="white" stroke="#001E2B" stroke-width="0.75" stroke-miterlimit="10" stroke-linecap="round" stroke-linejoin="round"/>
<path d="M346.4 259.9C344 256.2 341.1 253.4 337.8 251.7C334.2 249.8 329.1 248.6 322.4 248.3L205.8 247.2C203.8 246.8 202.3 245.8 201.3 244.1C200.3 242.5 199.8 238.8 199.8 233H182.7V236.7C182.7 244.3 183.6 250.2 185.3 254.3C187 258.4 189.9 261.4 193.8 263.3C197.7 265.2 204.1 266.1 212.9 266.1C222.6 266.1 324.7 266.4 327.4 267.1C330.1 267.8 332.6 269 334.9 271C337.2 272.9 338.4 276.5 338.6 281.8H346.5V259.9H346.4Z" fill="#001E2B" stroke="#001E2B" stroke-width="0.75" stroke-miterlimit="10"/>
<path d="M483.9 196.4C502.07 196.4 516.8 181.67 516.8 163.5C516.8 145.33 502.07 130.6 483.9 130.6C465.73 130.6 451 145.33 451 163.5C451 181.67 465.73 196.4 483.9 196.4Z" fill="white" stroke="#001E2B" stroke-miterlimit="10"/>
<path d="M463.9 189.6C463.9 189.6 505.4 175.8 511.3 145.3C518.4 154.8 521.1 176.7 505.6 188.2C490 199.8 475 195.8 463.9 189.6Z" fill="#001E2B" stroke="#001E2B" stroke-width="0.75" stroke-miterlimit="10"/>
<path d="M227.2 238.2H291.7" stroke="#001E2B" stroke-width="0.75" stroke-miterlimit="10" stroke-dasharray="2 2"/>
<path d="M215.3 227.5H253.8" stroke="#001E2B" stroke-width="0.75" stroke-miterlimit="10" stroke-dasharray="2 2"/>
<path d="M267.6 227.5H306.1" stroke="#001E2B" stroke-width="0.75" stroke-miterlimit="10" stroke-dasharray="2 2"/>
<path d="M299.2 111.4H337.7" stroke="#001E2B" stroke-width="0.75" stroke-miterlimit="10" stroke-dasharray="2 2"/>
<path d="M306.8 102.3H345.3" stroke="#001E2B" stroke-width="0.75" stroke-miterlimit="10" stroke-dasharray="2 2"/>
<path d="M343 111.4H356.6" stroke="#001E2B" stroke-width="0.75" stroke-miterlimit="10" stroke-dasharray="2 2"/>
<path d="M237.7 296.6L300.7 278.4" stroke="#001E2B" stroke-width="0.75" stroke-miterlimit="10" stroke-dasharray="2 2"/>
<path d="M252.6 407.3L315.6 425.6" stroke="#001E2B" stroke-width="0.75" stroke-miterlimit="10" stroke-dasharray="2 2"/>
<path d="M256.8 417.5L303.2 430.9" stroke="#001E2B" stroke-width="0.75" stroke-miterlimit="10" stroke-dasharray="2 2"/>
<path d="M420.3 288.7L481.5 306.5V370.3" stroke="#001E2B" stroke-width="0.75" stroke-miterlimit="10" stroke-dasharray="2 2"/>
</svg>
